Jump_normalized_Motion_pl02
version=1
nRows=14
nColumns=43
inDegrees=yes
endheader
time		pelvis_tilt		pelvis_list		pelvis_rotation		pelvis_tx		pelvis_ty		pelvis_tz		hip_flexion_r		hip_adduction_r		hip_rotation_r		knee_angle_r		ankle_angle_r		subtalar_angle_r		mtp_angle_r		hip_flexion_l		hip_adduction_l		hip_rotation_l		knee_angle_l		ankle_angle_l		subtalar_angle_l		mtp_angle_l		lumbar_extension		lumbar_bending		lumbar_rotation		neck_flexion		neck_lateral_bending		neck_rotation		arm_flex_r		arm_add_r		arm_rot_r		elbow_flex_r		pro_sup_r		wrist_flex_r		wrist_dev_r		hand_finger_flex_r		arm_flex_l		arm_add_l		arm_rot_l		elbow_flex_l		pro_sup_l		wrist_flex_l		wrist_dev_l		hand_finger_flex_l		
0.417500		-1.317373		-19.536244		92.960951		0.025542		1.840920		1.766991		64.500784		-4.091983		3.377625		-121.561352		27.895338		-0.785587		6.130468		65.110704		1.864949		4.752736		-119.663512		30.318031		-12.303407		4.195356		-46.990739		-0.813944		-0.322986		34.944085		1.705205		-2.610872		111.959487		-12.980095		29.839450		58.889159		69.530081		-32.152077		1.633502		25.947165		108.886650		-4.333094		18.656370		69.155782		115.598188		-18.748769		13.257297		77.730677		
0.419848		-1.290782		-19.811533		92.958796		0.025635		1.841577		1.764286		64.365917		-4.070021		3.332496		-121.334266		27.931011		-0.763891		6.195727		65.014473		1.842221		4.773837		-119.460025		30.342345		-12.358860		4.264436		-46.678124		-0.836353		-0.252890		35.092630		1.658986		-2.629188		112.855351		-12.731125		29.896787		58.724132		69.496377		-32.139886		1.489898		25.947232		109.839756		-4.033630		18.665747		68.795799		115.583149		-18.988778		13.231347		77.515259		
0.422197		-1.281902		-20.085676		92.950655		0.025610		1.842282		1.761111		64.191280		-4.079334		3.300064		-121.097888		27.919523		-0.743785		6.209271		64.856151		1.819893		4.759174		-119.249211		30.321769		-12.357174		4.279408		-46.321299		-0.856842		-0.234961		34.892379		1.669504		-2.642307		113.496403		-12.560365		29.842279		58.911203		69.509446		-32.124492		1.389683		25.950033		110.483174		-3.882711		18.575547		68.902088		115.575458		-19.079699		13.188988		77.451725		
0.424545		-1.164551		-20.048217		92.935752		0.025726		1.843566		1.757942		63.641946		-3.951422		3.185091		-120.802170		27.906998		-0.704446		6.543581		64.368903		1.676276		4.834302		-119.030496		30.233254		-12.487094		4.661248		-46.338768		-0.815063		-0.002477		34.915904		1.560637		-2.781251		114.554174		-12.612794		30.539910		58.705898		69.440808		-32.067967		0.583173		26.019960		111.418799		-3.690328		18.851696		68.578381		115.294784		-20.118584		12.938932		76.625778		
0.426894		-1.139397		-20.267917		92.909737		0.025713		1.844408		1.754663		63.386716		-3.956676		3.124529		-120.526097		27.890022		-0.681806		6.623808		64.142470		1.638807		4.841075		-118.817381		30.194800		-12.502591		4.754759		-46.031969		-0.834258		0.062457		34.754024		1.559917		-2.814629		115.238923		-12.475346		30.623123		58.791109		69.432756		-32.062582		0.357638		26.029754		112.086410		-3.547448		18.836268		68.595484		115.228140		-20.383742		12.857092		76.421028		
0.429242		-1.125903		-20.568794		92.910189		0.025786		1.845110		1.751563		63.244526		-3.942521		3.100149		-120.282920		27.885460		-0.655643		6.659906		64.015303		1.598300		4.831966		-118.558100		30.155513		-12.484200		4.795636		-45.632452		-0.865855		0.050098		34.659560		1.600216		-2.816171		115.944823		-12.244557		30.670046		58.719149		69.470923		-32.084847		0.301710		26.009461		112.839945		-3.361709		18.825769		68.414274		115.228599		-20.454603		12.835096		76.339744		
0.431591		-1.122716		-20.850261		92.880665		0.025763		1.845795		1.748290		63.068777		-3.961047		3.064366		-120.026508		27.866808		-0.628954		6.680998		63.872542		1.576936		4.824286		-118.366255		30.121705		-12.467292		4.821581		-45.244147		-0.907304		0.055436		34.491947		1.633189		-2.819999		116.579496		-12.056658		30.670519		58.780101		69.508045		-32.093281		0.231590		25.997898		113.505406		-3.221514		18.767906		68.399843		115.224252		-20.516011		12.800856		76.283846		
0.433939		-1.117052		-21.011843		92.821908		0.025765		1.846682		1.744987		62.767826		-3.942469		3.054782		-119.769495		27.798953		-0.531752		6.825425		63.598978		1.513761		4.805225		-118.165020		30.006860		-12.424626		4.994711		-44.988454		-0.960542		0.114914		34.322123		1.673839		-2.831652		117.421266		-11.995224		31.124706		58.634768		69.671258		-32.111926		-0.053954		25.990293		114.278230		-3.115757		18.904646		68.240520		115.086752		-20.742144		12.657287		76.072239		
0.436288		-1.110629		-21.207804		92.779424		0.025750		1.847547		1.741583		62.490183		-3.936268		3.041435		-119.505774		27.744124		-0.455183		6.934870		63.342031		1.459242		4.781493		-117.941657		29.918650		-12.389911		5.126413		-44.684377		-1.000724		0.152855		34.157727		1.697396		-2.841808		118.156246		-11.896082		31.421430		58.568625		69.786140		-32.132634		-0.279624		25.982681		114.969065		-3.004445		18.966095		68.142364		114.976425		-20.922983		12.544880		75.908626		
0.438636		-1.108905		-21.492105		92.758771		0.025678		1.848318		1.738059		62.286396		-3.968965		3.007405		-119.220675		27.716466		-0.427730		6.945358		63.159978		1.436274		4.759653		-117.704845		29.889479		-12.370938		5.140880		-44.273870		-1.027482		0.148029		33.971637		1.701695		-2.847001		118.676510		-11.712082		31.345150		58.697479		69.795591		-32.143893		-0.342594		25.975951		115.509292		-2.874771		18.858136		68.214483		114.955032		-20.974834		12.514239		75.873614		
0.440985		-1.109078		-21.735906		92.738593		0.025642		1.849101		1.734659		62.064912		-3.986920		2.986696		-118.963140		27.654449		-0.352535		6.996956		62.963316		1.409863		4.740722		-117.475653		29.811886		-12.320681		5.200371		-43.908707		-1.059214		0.152977		33.816982		1.714789		-2.854343		119.333133		-11.504703		31.409709		58.579202		69.818236		-32.164956		-0.420234		25.970546		116.168617		-2.709538		18.819931		68.071769		114.870048		-21.067925		12.499004		75.777053		
0.443333		-1.110504		-21.951360		92.716856		0.025623		1.849897		1.731246		61.823747		-4.003622		2.974090		-118.720863		27.571505		-0.252715		7.070444		62.747349		1.381969		4.725083		-117.260147		29.707149		-12.253487		5.283933		-43.566214		-1.094423		0.169405		33.670672		1.731574		-2.862733		120.036360		-11.303221		31.543990		58.363551		69.845954		-32.187399		-0.512924		25.969465		116.855397		-2.545229		18.819055		67.854253		114.747533		-21.181966		12.489689		75.651850		
0.445682		-1.110249		-22.224462		92.700629		0.025572		1.850765		1.727520		61.591117		-4.042066		2.943649		-118.409737		27.520582		-0.210982		7.080929		62.531977		1.348567		4.706644		-116.991219		29.648511		-12.217934		5.297118		-43.150514		-1.125395		0.174999		33.465594		1.737634		-2.866682		120.509314		-11.164212		31.497384		58.490295		69.856482		-32.185013		-0.579615		25.971324		117.321354		-2.438535		18.747616		67.963715		114.713498		-21.226724		12.465373		75.619968		
0.448030		-1.110045		-22.492059		92.686761		0.025555		1.851646		1.723799		61.354005		-4.070702		2.912368		-118.102144		27.454816		-0.157818		7.092123		62.318604		1.318367		4.687552		-116.715914		29.570742		-12.170507		5.310340		-42.739018		-1.157364		0.189432		33.265159		1.745080		-2.871182		120.990483		-11.021228		31.461824		58.560489		69.865270		-32.184048		-0.640002		25.971376		117.804658		-2.327408		18.682875		68.019279		114.677212		-21.272751		12.453994		75.581748		
